<?xml version="1.0" encoding="UTF-8"?>
<svg width="60" height="20" viewBox="0 0 60 20" version="1.1" xmlns="http://www.w3.org/2000/svg">
    <g fill="#FFFFFF">
        <path d="M23.5,15.9l2.1-12.3h3.4l-2.1,12.3H23.5z M43.5,3.8c-0.7-0.3-1.7-0.5-3-0.5c-3.3,0-5.6,1.7-5.6,4c0,1.8,1.7,2.7,2.9,3.3 c1.3,0.6,1.7,1,1.7,1.5c0,0.8-1,1.2-2,1.2c-1.3,0-2.1-0.2-3.2-0.7l-0.4,0.2l-0.6,3.5c1,0.4,2.8,0.8,4.6,0.8c4.3,0,7.2-1.6,7.2-4.1 c0-1.4-0.9-2.4-2.8-3.2c-1.2-0.6-1.9-0.9-1.9-1.5c0-0.5,0.6-1.1,1.9-1.1c1.1,0,1.9,0.2,2.5,0.5l0.3,0.1l0.7-3.4L43.5,3.8z M56.4,3.6h-2.6c-0.8,0-1.4,0.2-1.8,1l-5,11.3h3.6l0.7-1.9h4.3l0.4,1.9h3.1L56.4,3.6z M52.3,10.7l1.8-4.5l1,4.5H52.3z M16.8,3.6L13.4,12l-0.4-1.8c-0.6-2-2.6-4.2-4.8-5.3l3.1,11h3.7l5.5-12.3H16.8z"/>
    </g>
</svg> 